<svg width="93" height="31" viewBox="0 0 93 31" fill="none" xmlns="http://www.w3.org/2000/svg">
<g id="App Store Badge US Black">
<path id="Background Gray" d="M84.9555 9.99983e-05H7.35484C7.07197 9.99983e-05 6.7925 9.99983e-05 6.51039 0.00163843C6.27423 0.00317687 6.03996 0.00764603 5.80153 0.0114075C5.28356 0.0174857 4.76681 0.0629268 4.25577 0.147336C3.74544 0.233583 3.2511 0.396182 2.78947 0.629636C2.3284 0.865064 1.90711 1.17098 1.54088 1.53628C1.17273 1.90056 0.865843 2.32161 0.632028 2.78325C0.397568 3.24398 0.234993 3.73768 0.149917 4.24732C0.0640328 4.75632 0.0178176 5.27118 0.0116864 5.7873C0.00452799 6.02314 0.00377204 6.25976 0 6.49564V24.2755C0.00377204 24.5144 0.00452799 24.7458 0.0116864 24.9847C0.0178195 25.5008 0.0640347 26.0156 0.149917 26.5246C0.234758 27.0345 0.397343 27.5285 0.632028 27.9894C0.865737 28.4495 1.17266 28.8689 1.54088 29.2311C1.90572 29.5981 2.32729 29.9042 2.78947 30.1378C3.2511 30.3719 3.74539 30.5355 4.25577 30.623C4.7669 30.7068 5.28359 30.7522 5.80153 30.759C6.03996 30.7643 6.27423 30.7673 6.51039 30.7673C6.7925 30.7688 7.07199 30.7688 7.35484 30.7688H84.9555C85.2327 30.7688 85.5144 30.7688 85.7917 30.7673C86.0267 30.7673 86.2678 30.7643 86.5028 30.759C87.0198 30.7526 87.5355 30.7071 88.0455 30.623C88.5576 30.5349 89.0536 30.3713 89.5175 30.1378C89.9793 29.9041 90.4004 29.5979 90.765 29.2311C91.1322 28.8675 91.4398 28.4484 91.6764 27.9894C91.9093 27.5282 92.0704 27.0342 92.154 26.5246C92.24 26.0155 92.2879 25.5008 92.2972 24.9847C92.3002 24.7458 92.3002 24.5144 92.3002 24.2755C92.3062 23.9961 92.3062 23.7182 92.3062 23.4342V7.33546C92.3062 7.05377 92.3062 6.77432 92.3002 6.49564C92.3002 6.25976 92.3002 6.02314 92.2972 5.78726C92.2879 5.27111 92.24 4.75636 92.154 4.24729C92.0702 3.73795 91.9091 3.24428 91.6764 2.78322C91.2003 1.85791 90.4452 1.10472 89.5175 0.629566C89.0536 0.396684 88.5575 0.234127 88.0455 0.147267C87.5356 0.0624857 87.0198 0.0170288 86.5028 0.0112998C86.2678 0.00754603 86.0267 0.00303841 85.7917 0.00153844C85.5144 0 85.2327 0 84.9555 0V9.99983e-05Z" fill="#A6A6A6"/>
<path id="Background Black" d="M6.76552 29.8061C6.53199 29.8061 6.3041 29.8031 6.07239 29.798C5.5924 29.7919 5.11353 29.7507 4.63971 29.675C4.1979 29.6002 3.7699 29.4609 3.36984 29.2618C2.97344 29.0644 2.61189 28.8056 2.29905 28.4952C1.98168 28.1885 1.71745 27.8328 1.51684 27.4421C1.31402 27.0489 1.17365 26.6275 1.10063 26.1925C1.02178 25.725 0.979118 25.2523 0.973013 24.7785C0.968154 24.6195 0.961792 24.09 0.961792 24.09V6.66992C0.961792 6.66992 0.968568 6.14853 0.973052 5.99535C0.978897 5.5223 1.02131 5.05036 1.09993 4.58363C1.17308 4.1474 1.31356 3.72473 1.51649 3.33025C1.71636 2.93987 1.97912 2.58387 2.29458 2.27606C2.60969 1.96533 2.97239 1.70515 3.36946 1.50502C3.76861 1.30661 4.1958 1.16833 4.63672 1.09484C5.11209 1.01835 5.59262 0.976993 6.07428 0.971122L6.7659 0.961914H85.537L86.2369 0.971491C86.7142 0.977071 87.1904 1.01806 87.6614 1.0941C88.1068 1.16852 88.5384 1.30775 88.9421 1.50723C89.7376 1.91056 90.3849 2.54865 90.7932 3.33209C90.9929 3.72385 91.1312 4.14307 91.2034 4.57553C91.283 5.04609 91.3275 5.52173 91.3366 5.99867C91.3389 6.21223 91.3389 6.44163 91.3389 6.66992C91.3449 6.95271 91.3449 7.22187 91.3449 7.49324V23.2755C91.3449 23.5494 91.3449 23.8167 91.3389 24.0863C91.3389 24.3315 91.3388 24.5561 91.3359 24.7873C91.3269 25.2558 91.2831 25.7229 91.2049 26.1851C91.1333 26.6232 90.9937 27.048 90.791 27.4444C90.5889 27.8308 90.3262 28.1835 90.0125 28.4894C89.6994 28.8014 89.3372 29.0617 88.9399 29.2604C88.5373 29.461 88.1063 29.6008 87.6614 29.675C87.1876 29.7512 86.7087 29.7923 86.2287 29.798C86.0041 29.8031 85.7691 29.8061 85.5408 29.8061L84.7099 29.8076L6.76552 29.8061Z" fill="black"/>
<path id="App Store" fill-rule="evenodd" clip-rule="evenodd" d="M57.4448 22.3652C56.1873 22.3652 55.2671 21.7433 55.1612 20.796L53.6978 20.796C53.7902 22.5237 55.2205 23.6167 57.3388 23.6167C59.6029 23.6167 61.0264 22.4974 61.0264 20.7103C61.0264 19.3132 60.2121 18.5259 58.2523 18.0624L57.1999 17.804C55.9687 17.4998 55.4654 17.1024 55.4654 16.4271C55.4654 15.5798 56.2534 14.9976 57.4049 14.9976C58.5565 14.9976 59.3445 15.573 59.4309 16.5262H60.8739C60.8274 14.8781 59.4437 13.7461 57.4252 13.7461C55.3858 13.7461 53.9495 14.8781 53.9495 16.5262C53.9495 17.8574 54.7638 18.6777 56.5178 19.1013L57.7558 19.3996C58.9937 19.7038 59.5166 20.1477 59.5166 20.8892C59.5166 21.7433 58.6497 22.3652 57.4448 22.3652ZM32.5398 20.8772H28.8988L28.0244 23.4591H26.4822L29.9309 13.9069H31.5332L34.9819 23.4591H33.4135L32.5398 20.8772ZM29.2759 19.6857H32.162L30.7393 15.4955H30.6995L29.2759 19.6857ZM39.5236 23.5317C41.2717 23.5317 42.43 22.1413 42.43 19.9771C42.43 17.8189 41.2649 16.4217 39.4974 16.4217C38.5878 16.3924 37.7358 16.8654 37.2798 17.6529H37.2536V16.4946H35.8698V25.7627H37.2994V22.3133H37.3324C37.769 23.1057 38.6201 23.579 39.5236 23.5317ZM40.9604 19.9758C40.9604 18.5658 40.2317 17.6388 39.12 17.6388C38.0277 17.6388 37.2931 18.5853 37.2931 19.9758C37.2931 21.379 38.0277 22.3187 39.12 22.3187C40.2317 22.3187 40.9604 21.3985 40.9604 19.9758ZM47.1892 23.5317C48.9372 23.5317 50.0955 22.1412 50.0955 19.9771C50.0955 17.8189 48.9305 16.4217 47.1629 16.4217C46.2534 16.3924 45.4014 16.8654 44.9454 17.6529H44.9191V16.4946H43.5354V25.7627H44.9649V22.3133H44.998C45.4346 23.1057 46.2857 23.579 47.1892 23.5317ZM48.6249 19.9758C48.6249 18.5658 47.8963 17.6388 46.7845 17.6388C45.6923 17.6388 44.9576 18.5853 44.9576 19.9758C44.9576 21.379 45.6923 22.3187 46.7845 22.3187C47.8963 22.3187 48.6249 21.3985 48.6249 19.9758ZM64.1116 14.8454V16.4935H65.4359V17.6255H64.1116V21.4649C64.1116 22.0613 64.3767 22.3392 64.9589 22.3392C65.1161 22.3365 65.2731 22.3255 65.4291 22.3062V23.4314C65.1674 23.4804 64.9014 23.5025 64.6351 23.4976C63.2252 23.4976 62.6753 22.968 62.6753 21.6173V17.6255H61.6627V16.4935H62.6753V14.8454H64.1116ZM69.5053 16.4081C67.4928 16.4081 66.2023 17.785 66.2023 19.9762C66.2023 22.1735 67.48 23.5444 69.5053 23.5444C71.5312 23.5444 72.809 22.1735 72.809 19.9762C72.809 17.785 71.5245 16.4081 69.5053 16.4081ZM71.3533 19.9768C71.3533 18.4737 70.6645 17.5865 69.5061 17.5865C68.3478 17.5865 67.6597 18.4804 67.6597 19.9768C67.6597 21.486 68.3478 22.3664 69.5061 22.3664C70.6645 22.3664 71.3533 21.486 71.3533 19.9768H71.3533ZM75.3509 16.4945H73.9875L73.9875 23.4588H75.417V19.328C75.3694 18.9101 75.5068 18.4922 75.7932 18.1842C76.0796 17.8761 76.4863 17.7086 76.9066 17.7257C77.124 17.7194 77.3409 17.7485 77.5489 17.8121V16.475C77.3881 16.4389 77.2239 16.4211 77.0591 16.4216C76.2733 16.3916 75.5741 16.9168 75.384 17.6799H75.3509V16.4945ZM84.141 21.4125C83.9487 22.6768 82.7175 23.5444 81.1423 23.5444C79.1163 23.5444 77.8588 22.187 77.8588 20.0093C77.8588 17.8248 79.1231 16.4081 81.0822 16.4081C83.009 16.4081 84.2207 17.7317 84.2207 19.8433V20.3331H79.3019V20.4194C79.2559 20.9379 79.435 21.4511 79.7934 21.8286C80.1519 22.206 80.6552 22.4112 81.1753 22.3921C81.8691 22.4571 82.5231 22.0587 82.7836 21.4125L84.141 21.4125ZM82.79 19.3344H79.3082C79.307 18.8642 79.4937 18.413 79.8267 18.0811C80.1598 17.7491 80.6116 17.564 81.0818 17.5668C81.5483 17.5568 81.9978 17.7418 82.3221 18.0774C82.6463 18.4129 82.8159 18.8685 82.79 19.3344Z" fill="white"/>
<path id="Download on the" fill-rule="evenodd" clip-rule="evenodd" d="M45.456 6.48999H46.1396V11.3059H45.456V6.48999ZM30.7161 7.34725C30.2977 6.90547 29.7033 6.67458 29.0964 6.71813H27.4385V11.3079H29.0964C30.4636 11.3079 31.2561 10.4651 31.2561 8.99874C31.3326 8.39513 31.1344 7.78903 30.7161 7.34725ZM29.0169 10.6569H28.1515V7.3648H29.0169C29.4483 7.34086 29.8678 7.51096 30.1607 7.82858C30.4536 8.1462 30.5893 8.5781 30.5306 9.00615C30.5939 9.43599 30.4602 9.87148 30.1665 10.1917C29.8729 10.5119 29.4506 10.6828 29.0169 10.6569ZM32.0618 9.57268C32.0024 8.95184 32.3001 8.35099 32.83 8.02214C33.36 7.69329 34.0305 7.69329 34.5605 8.02214C35.0904 8.35099 35.3881 8.95184 35.3287 9.57268C35.3892 10.1942 35.0918 10.7962 34.5614 11.1258C34.031 11.4553 33.3595 11.4553 32.8291 11.1258C32.2987 10.7962 32.0013 10.1942 32.0618 9.57268ZM33.6957 8.38244C34.2877 8.38244 34.625 8.82151 34.625 9.57232H34.625C34.625 10.3261 34.2877 10.7648 33.6957 10.7648C33.1016 10.7648 32.7673 10.3292 32.7673 9.57233C32.7673 8.82151 33.1016 8.38244 33.6957 8.38244ZM39.6709 11.3058H38.9618L38.2459 8.75479H38.1919L37.479 11.3058H36.7766L35.8219 7.8421H36.5152L37.1357 10.4851H37.1868L37.8989 7.8421H38.5547L39.2668 10.4851H39.3209L39.9384 7.8421H40.622L39.6709 11.3058ZM42.0834 7.84227H41.4253L41.4253 11.306H42.1089V9.27967C42.0844 9.04916 42.1617 8.81943 42.3207 8.65071C42.4797 8.482 42.7044 8.39112 42.936 8.40191C43.4415 8.40191 43.6834 8.67872 43.6834 9.23535V11.306H44.367V9.06369C44.4171 8.72503 44.3105 8.38195 44.0772 8.13133C43.844 7.88071 43.5095 7.74974 43.1681 7.77541C42.7272 7.73957 42.3121 7.98739 42.1344 8.39251H42.0834V7.84227ZM47.8582 8.02214C47.3282 8.351 47.0304 8.95186 47.0898 9.57275C47.0293 10.1943 47.3268 10.7963 47.8573 11.1258C48.3877 11.4554 49.0592 11.4554 49.5896 11.1258C50.1201 10.7963 50.4175 10.1943 50.3571 9.57275C50.4164 8.95186 50.1187 8.351 49.5887 8.02214C49.0587 7.69328 48.3881 7.69328 47.8582 8.02214ZM49.6537 9.57232C49.6537 8.82151 49.3164 8.38244 48.7245 8.38244C48.1303 8.38244 47.7961 8.82151 47.7961 9.57233C47.7961 10.3292 48.1303 10.7648 48.7245 10.7648C49.3164 10.7648 49.6537 10.3261 49.6537 9.57232ZM52.3641 9.29252C51.54 9.3436 51.0758 9.70304 51.0758 10.3265C51.077 10.6222 51.2031 10.9035 51.4231 11.101C51.6431 11.2985 51.9363 11.3937 52.2304 11.3632C52.6498 11.3825 53.0473 11.1748 53.2708 10.8193H53.3249V11.3061H53.9829V8.93946C53.9829 8.2078 53.4931 7.7755 52.6248 7.7755C51.839 7.7755 51.2794 8.1571 51.2095 8.75204H51.8713C51.9472 8.50716 52.2116 8.36706 52.5932 8.36706C53.0604 8.36706 53.3023 8.57363 53.3023 8.93946V9.23844L52.3641 9.29252ZM53.3034 10.0302V9.74058L52.4575 9.79466C51.9805 9.82659 51.7642 9.98884 51.7642 10.2942C51.7642 10.6059 52.0346 10.7874 52.4065 10.7874C52.6266 10.8096 52.8464 10.7416 53.0154 10.5989C53.1845 10.4562 53.2884 10.2509 53.3034 10.0302ZM56.3198 7.78468C55.4447 7.78468 54.8821 8.47803 54.8821 9.57251C54.8821 10.6696 55.4387 11.363 56.3198 11.3629C56.7666 11.3794 57.1856 11.1466 57.4076 10.7586H57.4617V11.3059H58.1167V6.48999H57.4331V8.39236H57.382C57.1756 8.0011 56.7617 7.76432 56.3198 7.78468ZM55.5883 9.57251C55.5883 10.3072 55.9346 10.7493 56.5138 10.7493C57.0899 10.7493 57.446 10.3008 57.446 9.57552C57.446 8.85362 57.0862 8.39877 56.5138 8.39877C55.9383 8.39877 55.5883 8.84385 55.5883 9.57251H55.5883ZM61.7134 8.02214C61.1835 8.35099 60.8858 8.95184 60.9451 9.57268C60.8846 10.1942 61.182 10.7962 61.7125 11.1258C62.2429 11.4553 62.9143 11.4553 63.4448 11.1258C63.9752 10.7962 64.2726 10.1942 64.2121 9.57268C64.2715 8.95184 63.9738 8.35099 63.4438 8.02214C62.9139 7.69329 62.2433 7.69329 61.7134 8.02214ZM63.5091 9.57232C63.5091 8.82151 63.1718 8.38244 62.5798 8.38244C61.9857 8.38244 61.6514 8.82151 61.6514 9.57233C61.6514 10.3292 61.9857 10.7648 62.5798 10.7648C63.1718 10.7648 63.5091 10.3261 63.5091 9.57232ZM65.7877 7.84227H65.1297V11.306H65.8133V9.27967C65.7887 9.04916 65.8661 8.81943 66.0251 8.65071C66.184 8.482 66.4088 8.39112 66.6403 8.40191C67.1459 8.40191 67.3878 8.67872 67.3878 9.23535V11.306H68.0713V9.06369C68.1215 8.72503 68.0148 8.38195 67.7816 8.13133C67.5484 7.88071 67.2138 7.74974 66.8724 7.77541C66.4315 7.73957 66.0164 7.98739 65.8388 8.39251H65.7877V7.84227ZM71.9329 6.98007V7.85821H72.6834V8.434H71.9329V10.2151C71.9329 10.5779 72.0824 10.7368 72.4227 10.7368C72.5098 10.7365 72.5968 10.7312 72.6834 10.721V11.2904C72.5606 11.3123 72.4362 11.324 72.3115 11.3253C71.5513 11.3253 71.2486 11.0579 71.2486 10.3901V8.43397H70.6987V7.85818H71.2486V6.98007H71.9329ZM74.2954 6.48999H73.6178L73.6178 11.3059H74.3014V9.28291C74.2803 9.04523 74.3651 8.81033 74.5333 8.64103C74.7014 8.47172 74.9357 8.38526 75.1735 8.40477C75.6565 8.40477 75.9142 8.68496 75.9142 9.23821V11.3059H76.5985V9.06958C76.6437 8.73265 76.5364 8.39309 76.3057 8.14337C76.0751 7.89366 75.7451 7.75981 75.4056 7.77828C74.958 7.74196 74.5356 7.9901 74.3495 8.39877H74.2954V6.48999ZM80.5842 10.3709C80.3926 11.0243 79.7603 11.4464 79.0834 11.373C78.6215 11.3852 78.1776 11.1937 77.8695 10.8495C77.5614 10.5052 77.4202 10.0429 77.4833 9.58517C77.4218 9.12621 77.5625 8.66315 77.8689 8.31596C78.1753 7.96877 78.6173 7.77161 79.0804 7.77556C80.0441 7.77556 80.6256 8.43401 80.6256 9.52168V9.76021H78.1797V9.79851C78.158 10.0555 78.2458 10.3098 78.4214 10.4987C78.5971 10.6876 78.8442 10.7937 79.1021 10.7908C79.4366 10.831 79.7621 10.6651 79.9262 10.3709L80.5842 10.3709ZM79.9291 9.25507H78.1796C78.1765 9.01622 78.27 8.78625 78.4389 8.6173C78.6077 8.44836 78.8377 8.35478 79.0765 8.35778C79.3122 8.35238 79.5392 8.44674 79.7015 8.61762C79.8639 8.7885 79.9465 9.02 79.9291 9.25507Z" fill="white"/>
<path id="Icon" fill-rule="evenodd" clip-rule="evenodd" d="M17.808 6.70874C17.8824 7.68121 17.5749 8.64441 16.9507 9.39379C16.345 10.1471 15.4274 10.5809 14.4609 10.571C14.3994 9.62651 14.7159 8.69634 15.3406 7.98534C15.9733 7.26472 16.8543 6.80891 17.808 6.70874ZM20.8645 12.4222C19.7527 13.1058 19.0686 14.3111 19.0518 15.6161C19.0534 17.0925 19.9375 18.4249 21.2973 19C21.0358 19.8496 20.6416 20.6524 20.1293 21.3788C19.4414 22.408 18.72 23.4134 17.5751 23.432C17.0306 23.4445 16.6631 23.288 16.2801 23.1248C15.8806 22.9546 15.4643 22.7773 14.8129 22.7773C14.122 22.7773 13.6871 22.9603 13.2676 23.1369C12.9051 23.2894 12.5541 23.4371 12.0595 23.4577C10.9692 23.498 10.1359 22.3592 9.42294 21.3398C7.99788 19.2578 6.88821 15.4724 8.37588 12.8968C9.07446 11.6414 10.3806 10.8448 11.8165 10.7984C12.4349 10.7857 13.0283 11.0241 13.5485 11.233C13.9464 11.3928 14.3015 11.5355 14.5923 11.5355C14.8478 11.5355 15.193 11.3985 15.5953 11.2388C16.229 10.9873 17.0043 10.6796 17.7944 10.7625C19.0222 10.8009 20.16 11.416 20.8645 12.4222Z" fill="white"/>
</g>
</svg>
