<svg width="133" height="31" viewBox="0 0 133 31" fill="none" xmlns="http://www.w3.org/2000/svg">
<g id="chrome web store">
<rect id="Mask" x="0.650635" y="0.5" width="131.69" height="29.7687" rx="3.5" fill="white" stroke="#DFE1E6"/>
<mask id="mask0" style="mask-type:alpha" maskUnits="userSpaceOnUse" x="0" y="0" width="133" height="31">
<rect id="Mask_2" x="0.650635" y="0.5" width="131.69" height="29.7687" rx="3.5" fill="white" stroke="white"/>
</mask>
<g mask="url(#mask0)">
<g id="ChromeWebStore_Badge">
<g id="Group 4666">
<path id="Vector" d="M6.88159 4.80713H31.8812V15.6013H6.88159V4.80713Z" fill="#212121" fill-opacity="0.07"/>
<rect id="Rectangle 597" x="6.90576" y="15.5654" width="24.9497" height="11.1139" fill="black" fill-opacity="0.15"/>
<g id="Mask Group">
<mask id="mask1" style="mask-type:alpha" maskUnits="userSpaceOnUse" x="6" y="13" width="26" height="14">
<rect id="Rectangle 596" x="6.90576" y="13.5239" width="24.9497" height="13.1553" fill="black"/>
</mask>
<g mask="url(#mask1)">
<g id="Mask Group_2">
<mask id="mask2" style="mask-type:alpha" maskUnits="userSpaceOnUse" x="8" y="14" width="23" height="22">
<circle id="Ellipse 4" cx="19.381" cy="25.0907" r="10.8871" fill="#C4C4C4"/>
</mask>
<g mask="url(#mask2)">
<g id="Group">
<path id="Vector_2" d="M10.3083 14.1252V27.3713H15.1304L19.381 20.0111H30.1751V14.1252H10.3083ZM10.3083 14.1252V27.3713H15.1304L19.381 20.0111H30.1751V14.1252H10.3083Z" fill="#DB4437"/>
<path id="Vector_3" d="M8.58691 35.7135H18.8616L23.6248 30.9504V27.3735H15.1305L8.58691 16.1484V35.7135ZM8.58691 35.7135H18.8616L23.6248 30.9504V27.3735H15.1305L8.58691 16.1484V35.7135Z" fill="#0F9D58"/>
<path id="Vector_4" d="M19.3803 20.011L23.6308 27.3711L18.8677 35.7134H30.1812V20.011H19.3803ZM19.3803 20.011L23.6308 27.3711L18.8677 35.7134H30.1812V20.011H19.3803Z" fill="#FFCD40"/>
<path id="Vector_5" d="M19.3808 29.8276C22.0916 29.8276 24.2891 27.63 24.2891 24.9193C24.2891 22.2085 22.0916 20.011 19.3808 20.011C16.67 20.011 14.4725 22.2085 14.4725 24.9193C14.4725 27.63 16.67 29.8276 19.3808 29.8276Z" fill="#F1F1F1"/>
<path id="Vector_6" d="M19.3809 28.8458C21.5493 28.8458 23.3071 27.0879 23.3071 24.9196C23.3071 22.7512 21.5493 20.9934 19.3809 20.9934C17.2125 20.9934 15.4547 22.7512 15.4547 24.9196C15.4547 27.0879 17.2125 28.8458 19.3809 28.8458Z" fill="#4285F4"/>
</g>
</g>
</g>
</g>
</g>
<path id="Vector_7" d="M22.2202 7.08057H16.5498C16.2491 7.08057 15.9606 7.20005 15.7479 7.41273C15.5353 7.62541 15.4158 7.91387 15.4158 8.21464C15.4158 8.51542 15.5353 8.80388 15.7479 9.01656C15.9606 9.22924 16.2491 9.34872 16.5498 9.34872H22.2202C22.521 9.34872 22.8095 9.22924 23.0221 9.01656C23.2348 8.80388 23.3543 8.51542 23.3543 8.21464C23.3543 7.91387 23.2348 7.62541 23.0221 7.41273C22.8095 7.20005 22.521 7.08057 22.2202 7.08057Z" fill="white"/>
</g>
<g id="Group 32">
<path id="Path" d="M42.5276 24.7428C40.9218 24.7115 39.4872 23.7316 38.874 22.2472C38.2607 20.7629 38.5853 19.0562 39.7007 17.9006C40.4431 17.142 41.4663 16.7244 42.5276 16.7468C43.6045 16.7138 44.6378 17.1736 45.3342 17.9958L44.6535 18.6592C44.1411 18.0138 43.3509 17.6525 42.5276 17.6871C41.7401 17.6686 40.9793 17.9729 40.4218 18.5294C39.275 19.7793 39.275 21.6987 40.4218 22.9486C40.9793 23.5051 41.7401 23.8094 42.5276 23.7909C43.4373 23.7949 44.3002 23.3878 44.8756 22.6832L45.5592 23.3669C45.2016 23.7925 44.7531 24.1325 44.2468 24.362C43.7087 24.6139 43.1217 24.7439 42.5276 24.7428Z" fill="#5F6368"/>
<path id="Path_2" d="M47.4169 16.9321V19.3436L47.3736 20.0677H47.4169C47.5799 19.7996 47.8121 19.5804 48.089 19.433C48.3874 19.2617 48.7257 19.1722 49.0697 19.1734C49.6337 19.1335 50.1851 19.3534 50.5668 19.7705C50.9239 20.2282 51.1014 20.8007 51.0658 21.3801V24.582H50.0851V21.5215C50.0851 20.56 49.6543 20.0792 48.7928 20.0792C48.403 20.073 48.0338 20.2543 47.8005 20.5667C47.5456 20.8856 47.4099 21.2834 47.4169 21.6917V24.5762H46.4332V16.9321H47.4169Z" fill="#5F6368"/>
<path id="Path_3" d="M53.2004 24.5732H52.2196V19.3435H53.1629V20.2089H53.2061C53.3202 19.9084 53.5382 19.6587 53.8205 19.5051C54.0896 19.3284 54.4018 19.2286 54.7234 19.2166C54.9749 19.2093 55.2252 19.2535 55.459 19.3464L55.084 20.2637C54.9158 20.2077 54.739 20.1823 54.5619 20.1887C54.2024 20.1911 53.8604 20.3439 53.6186 20.6098C53.3378 20.9074 53.189 21.3058 53.2061 21.7146L53.2004 24.5732Z" fill="#5F6368"/>
<path id="Shape" fill-rule="evenodd" clip-rule="evenodd" d="M60.0945 19.9662C59.0245 18.9078 57.302 18.9078 56.232 19.9662C55.221 21.1005 55.221 22.8126 56.232 23.9469C57.3007 25.0084 59.0258 25.0084 60.0945 23.9469C61.1055 22.8126 61.1055 21.1005 60.0945 19.9662ZM58.1642 23.8462C57.7098 23.8462 57.2754 23.6595 56.9628 23.3298C56.2903 22.539 56.2903 21.3773 56.9628 20.5865C57.2746 20.2553 57.7093 20.0675 58.1642 20.0675C58.6191 20.0675 59.0538 20.2553 59.3656 20.5865C60.0429 21.3755 60.0429 22.5408 59.3656 23.3298C59.0529 23.6595 58.6185 23.8462 58.1642 23.8462Z" fill="#5F6368"/>
<path id="Path_4" d="M61.6437 24.572V19.3423H62.584V20.0663H62.6244C62.7959 19.7991 63.0334 19.5806 63.3138 19.4317C63.5939 19.2668 63.9119 19.1773 64.2369 19.1721C65.0484 19.1721 65.5994 19.5058 65.8898 20.1731C66.2712 19.5323 66.9703 19.149 67.7157 19.1721C68.2497 19.1345 68.7696 19.3542 69.1147 19.7635C69.4511 20.2325 69.617 20.8025 69.5849 21.3788V24.5807H68.6013V21.5202C68.6388 21.1239 68.5368 20.7271 68.3128 20.3981C68.0876 20.165 67.7707 20.0435 67.4474 20.0663C67.0673 20.0635 66.7102 20.248 66.4926 20.5596C66.2419 20.8743 66.1056 21.2649 66.1061 21.6673V24.5518H65.1225V21.5202C65.16 21.1239 65.058 20.7271 64.834 20.3981C64.6088 20.165 64.292 20.0435 63.9686 20.0663C63.5886 20.0635 63.2314 20.248 63.0138 20.5596C62.7623 20.874 62.625 21.2646 62.6244 21.6673V24.5518L61.6437 24.572Z" fill="#5F6368"/>
<path id="Shape_2" fill-rule="evenodd" clip-rule="evenodd" d="M71.18 23.9525C71.678 24.4819 72.3806 24.7701 73.1069 24.7428C73.6187 24.7604 74.1231 24.6172 74.5492 24.3332C74.9228 24.0814 75.2153 23.7267 75.3915 23.3121L74.5261 22.9486C74.3003 23.5367 73.7112 23.9031 73.0838 23.8457C72.6592 23.8493 72.2505 23.6844 71.9473 23.3871C71.6132 23.0569 71.4234 22.6078 71.4195 22.1381H75.5617V21.9563C75.5952 21.2183 75.3443 20.4956 74.8607 19.9371C74.382 19.4228 73.7023 19.1436 73.0002 19.1727C72.2933 19.1548 71.616 19.4569 71.157 19.9948C70.6809 20.536 70.4247 21.2357 70.4387 21.9563C70.4121 22.6936 70.6787 23.4113 71.18 23.9525ZM74.0987 20.4619C74.3332 20.6929 74.4783 20.9995 74.5083 21.3272L71.4766 21.3157C71.5599 20.9599 71.7525 20.6391 72.0276 20.3984C72.2888 20.1715 72.6248 20.0492 72.9708 20.0551C73.3875 20.0244 73.7975 20.1723 74.0987 20.4619Z" fill="#5F6368"/>
<path id="Path_5" d="M87.4517 16.9321L85.4123 24.5733H84.4085L82.7643 19.534H82.721L81.0797 24.5733H80.0759L77.95 16.9321H78.9769L80.5864 22.9407H80.6297L82.297 17.9562H83.2143L84.8671 22.9407H84.8931L86.419 16.9321H87.4517Z" fill="#5F6368"/>
<path id="Shape_3" fill-rule="evenodd" clip-rule="evenodd" d="M88.0749 23.9525C88.5729 24.4819 89.2755 24.7701 90.0018 24.7428C90.5127 24.7602 91.0161 24.617 91.4412 24.3332C91.8148 24.0807 92.1082 23.7263 92.2864 23.3121L91.421 22.9486C91.196 23.5374 90.6063 23.9041 89.9787 23.8457C89.5542 23.8487 89.1458 23.6839 88.8422 23.3871C88.5081 23.0569 88.3183 22.6078 88.3144 22.1381H92.4566V21.9563C92.4901 21.2183 92.2392 20.4956 91.7556 19.9371C91.2769 19.4228 90.5972 19.1436 89.8951 19.1727C89.1888 19.154 88.5121 19.4563 88.0547 19.9948C87.5762 20.5347 87.3187 21.2351 87.3336 21.9563C87.307 22.6936 87.5736 23.4113 88.0749 23.9525ZM91.0005 20.4619C91.235 20.6929 91.3801 20.9995 91.4101 21.3272H88.3813C88.4646 20.9714 88.6573 20.6506 88.9323 20.4099C89.1914 20.18 89.5262 20.0537 89.8727 20.0551C90.2893 20.0244 90.6994 20.1723 91.0005 20.4619Z" fill="#5F6368"/>
<path id="Shape_4" fill-rule="evenodd" clip-rule="evenodd" d="M95.0442 24.4868C95.3749 24.6607 95.7438 24.749 96.1173 24.7435C96.7915 24.7466 97.4333 24.4547 97.874 23.9445C98.8547 22.8021 98.8547 21.1149 97.874 19.9725C97.4333 19.4623 96.7915 19.1704 96.1173 19.1734C95.744 19.167 95.3751 19.2543 95.0442 19.4273C94.7554 19.5744 94.5105 19.7953 94.3346 20.0677H94.2914L94.3346 19.3436V16.9321H93.3539V24.5733H94.2914V23.8464H94.3346C94.5089 24.1201 94.7542 24.3414 95.0442 24.4868ZM97.1295 23.3295C96.83 23.6616 96.4027 23.8496 95.9555 23.8459C95.5091 23.8534 95.0808 23.6697 94.7786 23.3411C94.1285 22.5379 94.1285 21.3895 94.7786 20.5863C95.0807 20.257 95.5071 20.0695 95.9541 20.0695C96.401 20.0695 96.8274 20.257 97.1295 20.5863C97.7868 21.3826 97.7868 22.5332 97.1295 23.3295Z" fill="#5F6368"/>
<path id="Path_6" d="M103.854 24.7437C103.268 24.7334 102.7 24.5431 102.227 24.1985C101.699 23.8404 101.327 23.2949 101.186 22.6726L102.083 22.3091C102.185 22.7239 102.415 23.096 102.74 23.3735C103.044 23.6515 103.442 23.8049 103.854 23.8033C104.246 23.8153 104.631 23.6977 104.95 23.4687C105.243 23.2593 105.413 22.9175 105.403 22.5572C105.422 22.1734 105.253 21.8044 104.95 21.5678C104.508 21.2738 104.021 21.0554 103.508 20.9217C102.938 20.7686 102.412 20.4863 101.97 20.0967C101.621 19.7567 101.432 19.2855 101.448 18.7986C101.445 18.2458 101.683 17.719 102.1 17.3563C102.568 16.9446 103.179 16.7324 103.802 16.765C104.366 16.7401 104.921 16.9102 105.374 17.2467C105.738 17.5129 106.014 17.8829 106.164 18.3082L105.267 18.6803C105.185 18.4126 105.02 18.1775 104.797 18.0082C104.215 17.5931 103.434 17.5931 102.853 18.0082C102.602 18.1907 102.454 18.4826 102.455 18.7928C102.454 19.0781 102.59 19.3464 102.821 19.514C103.149 19.7512 103.516 19.9298 103.906 20.0419C104.226 20.142 104.541 20.2594 104.849 20.3938C105.12 20.5188 105.378 20.6705 105.619 20.8467C105.869 21.0287 106.068 21.2721 106.196 21.5534C106.334 21.8595 106.402 22.1926 106.395 22.5284C106.401 22.873 106.321 23.2138 106.164 23.5206C106.023 23.8 105.814 24.0392 105.556 24.2158C105.05 24.5575 104.453 24.7394 103.842 24.7379L103.854 24.7437Z" fill="#5F6368"/>
<path id="Path_7" d="M109.427 24.6563C108.967 24.711 108.508 24.5529 108.179 24.2271C107.85 23.9012 107.688 23.4432 107.739 22.9832V20.24H106.816V19.3429H107.733V17.7419H108.717V19.3429H109.998V20.24H108.717V22.9082C108.717 23.4851 108.951 23.7736 109.421 23.7736C109.575 23.7782 109.727 23.7486 109.868 23.687L110.211 24.5293C109.961 24.6237 109.694 24.6669 109.427 24.6563V24.6563Z" fill="#5F6368"/>
<path id="Shape_5" fill-rule="evenodd" clip-rule="evenodd" d="M115.211 19.9662C114.141 18.9078 112.418 18.9078 111.348 19.9662C110.337 21.1005 110.337 22.8126 111.348 23.9469C112.417 25.0084 114.142 25.0084 115.211 23.9469C116.222 22.8126 116.222 21.1005 115.211 19.9662ZM113.279 23.8462C112.825 23.8462 112.391 23.6595 112.078 23.3298C111.406 22.539 111.406 21.3773 112.078 20.5865C112.39 20.2553 112.825 20.0675 113.279 20.0675C113.734 20.0675 114.169 20.2553 114.481 20.5865C115.158 21.3755 115.158 22.5408 114.481 23.3298C114.168 23.6595 113.734 23.8462 113.279 23.8462Z" fill="#5F6368"/>
<path id="Path_8" d="M117.74 24.5731H116.759V19.3434H117.696V20.2088H117.74C117.85 19.9034 118.069 19.649 118.354 19.4934C118.622 19.3168 118.933 19.2171 119.254 19.2049C119.506 19.1973 119.758 19.2415 119.993 19.3347L119.618 20.252C119.449 20.1963 119.273 20.1709 119.095 20.177C118.735 20.1794 118.392 20.332 118.149 20.5982C117.869 20.8962 117.722 21.2946 117.74 21.703V24.5731Z" fill="#5F6368"/>
<path id="Shape_6" fill-rule="evenodd" clip-rule="evenodd" d="M120.754 23.9527C121.252 24.4815 121.955 24.7696 122.681 24.743C123.188 24.7617 123.689 24.6226 124.114 24.345C124.487 24.0923 124.78 23.7378 124.957 23.3238L124.091 22.9604C123.869 23.5442 123.286 23.9101 122.664 23.8575C122.239 23.8617 121.83 23.6967 121.527 23.3988C121.187 23.0678 120.995 22.613 120.996 22.1383H125.136V21.9565C125.17 21.2189 124.92 20.4962 124.438 19.9373C123.957 19.4232 123.277 19.1441 122.574 19.1729C121.868 19.1542 121.191 19.4565 120.734 19.995C120.255 20.5349 119.998 21.2353 120.013 21.9565C119.987 22.6936 120.254 23.4108 120.754 23.9527ZM123.679 20.4623C123.915 20.6924 124.06 20.9994 124.088 21.3276L121.06 21.3161C121.141 20.9602 121.333 20.6391 121.608 20.3988C121.87 20.1724 122.207 20.0503 122.554 20.0555C122.97 20.0253 123.379 20.1732 123.679 20.4623Z" fill="#5F6368"/>
<path id="Shape_7" fill-rule="evenodd" clip-rule="evenodd" d="M41.3076 6.93872L39.1268 12.7079H39.9374L40.5143 11.1415H42.946L43.5027 12.7079H44.3277L42.147 6.93872H41.3076ZM42.6807 10.4475H40.7596L41.7058 7.83695H41.7375L42.6807 10.4475Z" fill="#5F6368"/>
<path id="Path_9" d="M45.6629 12.7084L44.0648 8.75073H44.8725L46.0263 11.8199H46.0407L47.2205 8.75073H48.0138L46.3984 12.7084H45.6629Z" fill="#5F6368"/>
<path id="Shape_8" fill-rule="evenodd" clip-rule="evenodd" d="M48.6108 12.4742C48.9061 12.7209 49.2819 12.8503 49.6665 12.8376C50.1926 12.8621 50.6902 12.5978 50.9646 12.1482H50.9992V12.7078H51.7203V10.3165C51.7459 9.85158 51.5654 9.39896 51.2271 9.07905C50.8793 8.77692 50.4298 8.61814 49.9694 8.63483C49.5917 8.61171 49.2168 8.71303 48.9021 8.92328C48.6637 9.08782 48.4759 9.31558 48.3598 9.58096L49.0406 9.86942C49.1046 9.69018 49.2317 9.54043 49.3983 9.44827C49.5738 9.3476 49.7728 9.29487 49.9752 9.29539C50.2445 9.28851 50.5067 9.38208 50.7107 9.55789C50.9059 9.73609 51.0117 9.99194 50.9992 10.256V10.3713C50.6678 10.1981 50.2969 10.1146 49.9233 10.129C49.4824 10.114 49.0488 10.2436 48.6887 10.4983C48.3609 10.7292 48.1721 11.1101 48.1867 11.5107C48.173 11.8799 48.3293 12.2349 48.6108 12.4742ZM50.6215 11.8056C50.3991 12.0246 50.0999 12.1478 49.7878 12.1489C49.5839 12.1529 49.3836 12.0945 49.2138 11.9816C49.055 11.8824 48.9597 11.7073 48.9628 11.5201C48.9657 11.3051 49.0666 11.1032 49.2369 10.972C49.4724 10.799 49.7617 10.7152 50.0532 10.7354C50.3891 10.7105 50.7233 10.8022 50.9993 10.9951C50.9985 11.3076 50.8603 11.604 50.6215 11.8056Z" fill="#5F6368"/>
<path id="Shape_9" fill-rule="evenodd" clip-rule="evenodd" d="M52.6928 7.82252C52.9014 7.96153 53.1792 7.93366 53.356 7.75598C53.4562 7.65957 53.5116 7.52575 53.5089 7.38675C53.5094 7.13607 53.3327 6.91999 53.0868 6.87084C52.841 6.82169 52.5948 6.95318 52.4989 7.1848C52.403 7.41641 52.4842 7.68351 52.6928 7.82252ZM52.615 12.7086H53.3563V8.75101H52.615V12.7086Z" fill="#5F6368"/>
<path id="Path_10" d="M55.0705 12.7079H54.3176V6.93872H55.0618L55.0705 12.7079Z" fill="#5F6368"/>
<path id="Shape_10" fill-rule="evenodd" clip-rule="evenodd" d="M56.1308 12.4743C56.4252 12.7206 56.8 12.8499 57.1837 12.8377C57.7069 12.8563 58.2 12.5933 58.4759 12.1483H58.5077V12.7079H59.2202V10.3166C59.2501 9.85436 59.0762 9.40216 58.7442 9.07913C58.3954 8.77682 57.9449 8.61806 57.4837 8.63491C57.1069 8.61243 56.7331 8.71373 56.4193 8.92337C56.18 9.08698 55.992 9.31501 55.877 9.58105L56.5548 9.8695C56.6209 9.69059 56.7488 9.54121 56.9154 9.44836C57.091 9.34768 57.2899 9.29496 57.4923 9.29548C57.7616 9.2886 58.0238 9.38217 58.2279 9.55797C58.4234 9.73593 58.5292 9.99195 58.5163 10.256V10.3714C58.1861 10.1979 57.816 10.1143 57.4433 10.1291C57.0025 10.114 56.5688 10.2437 56.2087 10.4983C55.8809 10.7293 55.6921 11.1102 55.7068 11.5108C55.6931 11.88 55.8493 12.235 56.1308 12.4743ZM58.1413 11.8142C57.9179 12.0333 57.6177 12.1565 57.3048 12.1575V12.1488C57.0978 12.1584 56.8931 12.1029 56.7192 11.9902C56.5604 11.891 56.4652 11.7159 56.4683 11.5286C56.4733 11.3108 56.58 11.108 56.7567 10.9806C56.9922 10.8074 57.2815 10.7235 57.5731 10.744C57.9081 10.718 58.2418 10.8099 58.5163 11.0036C58.5166 11.3158 58.3794 11.6123 58.1413 11.8142Z" fill="#5F6368"/>
<path id="Shape_11" fill-rule="evenodd" clip-rule="evenodd" d="M61.3496 12.6416C61.5989 12.7743 61.8778 12.8417 62.1602 12.8378C62.6682 12.8418 63.1523 12.6224 63.4842 12.2378C64.2261 11.3732 64.2261 10.0966 63.4842 9.23206C63.1534 8.84529 62.6691 8.62373 62.1602 8.6263C61.878 8.62146 61.5992 8.68793 61.3496 8.81957C61.1308 8.9305 60.9456 9.09779 60.8131 9.30417H60.7785L60.8131 8.75611V6.93018H60.0688V12.6993H60.7785V12.1484H60.8131C60.9427 12.3593 61.1285 12.5301 61.3496 12.6416ZM62.9276 11.7598C62.7007 12.0106 62.3773 12.1524 62.0391 12.1492C61.7006 12.1554 61.3759 12.0157 61.1478 11.7655C60.6554 11.1586 60.6554 10.2898 61.1478 9.68287C61.3767 9.43384 61.6994 9.2921 62.0377 9.2921C62.3759 9.2921 62.6987 9.43384 62.9276 9.68287C63.4235 10.2863 63.4235 11.1563 62.9276 11.7598Z" fill="#5F6368"/>
<path id="Path_11" d="M65.422 12.7079H64.6807V6.93872H65.422V12.7079Z" fill="#5F6368"/>
<path id="Shape_12" fill-rule="evenodd" clip-rule="evenodd" d="M66.6224 12.2393C66.9992 12.641 67.5316 12.8598 68.082 12.8393C68.4691 12.8581 68.8525 12.7552 69.1781 12.545C69.46 12.3535 69.6813 12.0852 69.8156 11.772L69.1522 11.4835C68.9829 11.9253 68.5418 12.2017 68.0704 12.1614C67.7474 12.166 67.4358 12.0414 67.2051 11.8153C66.9517 11.5652 66.8075 11.2251 66.8041 10.8691H69.9396V10.7335C69.9672 10.1727 69.777 9.62293 69.4089 9.19895C69.0466 8.81005 68.5322 8.59924 68.0012 8.62204C67.4665 8.60829 66.9542 8.83736 66.608 9.2451C66.2459 9.65412 66.0513 10.1845 66.0628 10.7307C66.0426 11.2877 66.2438 11.8301 66.6224 12.2393ZM68.835 9.59625C69.0129 9.76733 69.1235 9.99663 69.1465 10.2424H66.8533C66.9154 9.97282 67.0607 9.72961 67.2687 9.54721C67.467 9.37547 67.7217 9.28302 67.984 9.2876C68.2988 9.26422 68.6084 9.37655 68.835 9.59625Z" fill="#5F6368"/>
<path id="Shape_13" fill-rule="evenodd" clip-rule="evenodd" d="M72.4592 7.75756C72.6648 7.96228 72.9973 7.96163 73.202 7.75612C73.4063 7.55123 73.4063 7.21968 73.202 7.01479C72.9961 6.81017 72.6637 6.81017 72.4578 7.01479C72.2531 7.2203 72.2537 7.55285 72.4592 7.75756ZM72.4579 12.7086H73.2021V8.75101H72.4579V12.7086Z" fill="#5F6368"/>
<path id="Path_12" d="M74.8813 8.75179V9.29986H74.913C75.0365 9.09678 75.213 8.93123 75.4236 8.82102C75.6486 8.68998 75.9045 8.62128 76.1649 8.62198C76.5885 8.59373 77.0017 8.76052 77.287 9.07486C77.561 9.4173 77.6995 9.84845 77.6764 10.2864V12.7094H76.9322V10.4018C76.9322 9.66908 76.6063 9.30274 75.9543 9.30274C75.6594 9.29765 75.3802 9.43513 75.2044 9.67197C75.0096 9.91763 74.9075 10.224 74.9159 10.5373V12.7267H74.1746V8.75179H74.8813Z" fill="#5F6368"/>
<path id="Path_13" d="M82.0381 12.7721C81.6907 12.8116 81.344 12.6913 81.0957 12.4452C80.8473 12.199 80.7239 11.8535 80.7602 11.5057V9.42885H80.0651V8.75098H80.7602V7.53369H81.5045V8.74521H82.4737V9.42308H81.5045V11.4423C81.5045 11.8721 81.6833 12.0884 82.0381 12.0884C82.1539 12.0925 82.2692 12.0708 82.3756 12.025L82.6352 12.6625C82.4456 12.7388 82.2425 12.7761 82.0381 12.7721V12.7721Z" fill="#5F6368"/>
<path id="Path_14" d="M83.9672 6.92554V8.75147L83.9355 9.29954H83.9672C84.0895 9.09657 84.2651 8.93097 84.4749 8.8207C84.7008 8.68929 84.9577 8.62058 85.2191 8.62166C85.6406 8.59563 86.0512 8.76219 86.3354 9.07454C86.6086 9.41726 86.7462 9.84847 86.722 10.2861V12.7091H85.9806V10.4014C85.9806 9.66876 85.6547 9.30242 85.0028 9.30242C84.7078 9.29733 84.4286 9.43481 84.2528 9.67165C84.0567 9.91658 83.9544 10.2234 83.9643 10.537V12.7264H83.2201V6.95727L83.9672 6.92554Z" fill="#5F6368"/>
<path id="Shape_14" fill-rule="evenodd" clip-rule="evenodd" d="M87.9371 12.2391C88.3131 12.6404 88.8444 12.8592 89.3939 12.8391C89.7814 12.8579 90.165 12.7539 90.49 12.542C90.7734 12.3513 90.9958 12.0829 91.1304 11.7689L90.4669 11.4805C90.2977 11.9222 89.8565 12.1986 89.3852 12.1583C89.0621 12.163 88.7506 12.0384 88.5198 11.8122C88.2653 11.5629 88.121 11.2223 88.1189 10.8661H91.24V10.7305C91.271 10.1725 91.0861 9.62405 90.7236 9.19877C90.3605 8.80941 89.845 8.5986 89.3131 8.62186C88.7783 8.60811 88.2661 8.83718 87.9198 9.24492C87.5578 9.65394 87.3631 10.1844 87.3747 10.7305C87.3555 11.2879 87.5578 11.8303 87.9371 12.2391ZM90.1494 9.59636C90.3251 9.76907 90.4352 9.9975 90.4609 10.2425H88.1533C88.2154 9.97294 88.3607 9.72973 88.5687 9.54732C88.767 9.37559 89.0217 9.28313 89.284 9.28771C89.6035 9.26086 89.919 9.37339 90.1494 9.59636Z" fill="#5F6368"/>
</g>
</g>
</g>
</g>
</svg>
