<svg width="105" height="31" viewBox="0 0 105 31" fill="none" xmlns="http://www.w3.org/2000/svg">
<g id="Google Play Badge US">
<rect id="Background Black" x="0.306152" width="103.844" height="30.7687" rx="4" fill="#A6A6A6"/>
<path id="Path" d="M99.9796 0.961914C101.752 0.961914 103.188 2.37445 103.188 4.11691V26.6526C103.188 28.395 101.752 29.8076 99.9796 29.8076H4.47601C2.70377 29.8076 1.26709 28.395 1.26709 26.6526V4.11691C1.26709 2.37445 2.70377 0.961914 4.47601 0.961914H99.9796V0.961914Z" fill="black"/>
<path id="Google Play" fill-rule="evenodd" clip-rule="evenodd" d="M37.0279 17.7383V19.1229H40.3509C40.2988 19.7751 40.0277 20.3904 39.5817 20.869C38.9094 21.5538 37.979 21.9226 37.0202 21.8844C34.981 21.8844 33.3279 20.2313 33.3279 18.1922C33.3279 16.153 34.981 14.4999 37.0202 14.4999C37.9569 14.4846 38.8615 14.8415 39.5355 15.4922L40.5124 14.5153C39.5931 13.5844 38.3361 13.0655 37.0279 13.0769C35.1656 13.0044 33.4128 13.9566 32.4601 15.5584C31.5074 17.1602 31.5074 19.1549 32.4601 20.7567C33.4128 22.3585 35.1656 23.3107 37.0279 23.2382C38.36 23.2984 39.653 22.7795 40.574 21.8152C41.3798 20.9297 41.8101 19.7658 41.7739 18.5691C41.7764 18.2775 41.7507 17.9864 41.697 17.6999L37.0279 17.7383ZM45.5588 16.7303C43.7543 16.7345 42.2945 18.2001 42.2973 20.0046C42.3001 21.8091 43.7645 23.27 45.569 23.2686C47.3736 23.2672 48.8357 21.804 48.8357 19.9995C48.8483 19.1259 48.5058 18.2847 47.8866 17.6684C47.2674 17.0521 46.4246 16.7135 45.5511 16.7303H45.5588ZM49.4665 20.0097C49.4609 18.2062 50.9168 16.7388 52.7203 16.7303C53.5938 16.7135 54.4366 17.0521 55.0558 17.6684C55.675 18.2847 56.0175 19.1259 56.0048 19.9995C56.0048 21.803 54.5443 23.2658 52.7408 23.2686C50.9373 23.2714 49.4722 21.8132 49.4665 20.0097ZM50.7911 20.8594C51.1423 21.5947 51.9074 22.0405 52.7203 21.9836C53.2305 21.9718 53.7143 21.7544 54.0619 21.3807C54.4095 21.007 54.5914 20.5088 54.5664 19.9991C54.5644 19.1842 54.0645 18.4533 53.3058 18.1561C52.5471 17.8588 51.6837 18.0555 51.1287 18.6522C50.5737 19.2488 50.4398 20.1241 50.7911 20.8594ZM43.6245 20.8652C43.9782 21.6 44.7455 22.0436 45.5588 21.9836H45.5511C46.0613 21.9718 46.5451 21.7543 46.8927 21.3807C47.2403 21.007 47.4222 20.5087 47.3972 19.999C47.395 19.1835 46.8941 18.4523 46.1344 18.1557C45.3747 17.8591 44.5109 18.0574 43.9567 18.6557C43.4025 19.254 43.2707 20.1304 43.6245 20.8652ZM69.0818 16.7302C70.3571 16.7772 71.4711 17.6065 71.8818 18.8148L72.0433 19.1609L67.6664 20.9686C67.9408 21.5934 68.5692 21.9869 69.251 21.9609C69.9094 21.9626 70.52 21.6178 70.8587 21.0532L71.9741 21.8224C71.3669 22.7312 70.344 23.2745 69.251 23.2686C68.3822 23.2813 67.5456 22.9402 66.9334 22.3236C66.3212 21.7071 65.986 20.8681 66.0049 19.9994C65.9518 19.1506 66.2523 18.3176 66.8352 17.6983C67.4181 17.079 68.2313 16.7285 69.0818 16.7302ZM67.4199 19.907C67.3885 19.4264 67.5517 18.9533 67.873 18.5944C68.1942 18.2355 68.6464 18.0211 69.1276 17.9994C69.6348 17.9659 70.113 18.2384 70.343 18.6917L67.4199 19.907ZM65.3051 23.077H63.8667V13.4618H65.3051V23.077ZM61.5126 17.4617H61.4588C61.0203 16.9715 60.3935 16.6916 59.7357 16.6925C57.9897 16.7772 56.6176 18.2175 56.6176 19.9655C56.6176 21.7136 57.9897 23.1539 59.7357 23.2386C60.3956 23.2496 61.0265 22.968 61.4588 22.4693H61.5049V22.9386C61.5049 24.1924 60.8357 24.8616 59.7588 24.8616C59.0252 24.8444 58.3748 24.3855 58.1127 23.7001L56.8589 24.2232C57.3417 25.3976 58.489 26.1615 59.7588 26.1539C61.4434 26.1539 62.8357 25.1616 62.8357 22.7463V16.9233H61.5126V17.4617ZM59.8633 21.9842L59.8657 21.9844H59.858L59.8633 21.9842ZM61.1595 21.3673C60.8294 21.7409 60.3613 21.9636 59.8633 21.9842C58.836 21.8924 58.0484 21.0315 58.0484 19.9998C58.0484 18.9673 58.8372 18.1059 59.8657 18.0152C60.3627 18.0407 60.8284 18.2658 61.1571 18.6394C61.4859 19.0131 61.6498 19.5036 61.6119 19.9998C61.6543 20.4983 61.4908 20.9924 61.1595 21.3673ZM78.6196 13.4617H75.1812V23.0769H76.6196V19.4308H78.6273C79.7447 19.5111 80.8134 18.9605 81.3966 18.0039C81.9798 17.0474 81.9798 15.8452 81.3966 14.8886C80.8134 13.9321 79.7447 13.3814 78.6273 13.4617H78.6196ZM76.6125 18.0762H78.6201L78.6509 18.0992C79.5621 18.0992 80.3009 17.3605 80.3009 16.4493C80.3009 15.538 79.5621 14.7993 78.6509 14.7993H76.6125V18.0762ZM87.4888 16.692C86.4186 16.6281 85.4124 17.2052 84.9273 18.1613L86.2042 18.692C86.4614 18.2179 86.9743 17.9404 87.5119 17.9843C87.8807 17.9413 88.2514 18.0482 88.5407 18.281C88.83 18.5139 89.0136 18.8532 89.0503 19.2228V19.3228C88.5883 19.0782 88.0731 18.9513 87.5503 18.9535C86.1734 18.9535 84.7812 19.7228 84.7812 21.1151C84.8086 21.7148 85.0775 22.278 85.5266 22.6764C85.9758 23.0748 86.567 23.2747 87.1657 23.2304C87.9036 23.2834 88.6115 22.9294 89.0118 22.3073H89.058V23.0766H90.4426V19.3766C90.4426 17.692 89.1657 16.7151 87.5273 16.7151L87.4888 16.692ZM86.1891 21.1456C86.1891 21.7225 86.8429 21.961 87.3121 21.961L87.3506 21.9841C88.2171 21.9629 88.9357 21.3067 89.0352 20.4456C88.636 20.2229 88.1844 20.1113 87.7275 20.1226C87.0044 20.1226 86.1891 20.3764 86.1891 21.1456ZM95.4884 16.9232L93.8422 21.0924H93.7961L92.0884 16.9232H90.55L93.1115 22.7539L91.65 25.9923H93.1499L97.0883 16.9232H95.4884ZM83.9972 23.077H82.5587V13.4618H83.9972V23.077Z" fill="white"/>
<g id="GET IT ON">
<path fill-rule="evenodd" clip-rule="evenodd" d="M53.5431 5.97704C52.6356 6.93761 52.6356 8.43949 53.5431 9.40006C54.4792 10.331 55.9915 10.331 56.9276 9.40006C57.839 8.44103 57.839 6.93607 56.9276 5.97704C56.4799 5.52608 55.8708 5.27246 55.2354 5.27246C54.5999 5.27246 53.9908 5.52608 53.5431 5.97704ZM36.2052 9.41559C36.6 9.00339 36.8085 8.44732 36.7821 7.87716C36.7821 7.76109 36.7718 7.64525 36.7513 7.53101H34.5129V8.08485H36.1821C36.1707 8.43369 36.0342 8.76679 35.7975 9.02329C35.2703 9.53293 34.4882 9.67534 33.8152 9.38425C33.1421 9.09317 32.7103 8.42575 32.7206 7.69254C32.7039 7.20734 32.8855 6.73625 33.2237 6.3879C33.5619 6.03956 34.0274 5.84404 34.5129 5.84642C34.9959 5.82003 35.4632 6.02232 35.7744 6.39257L36.1821 5.98488C35.9852 5.75839 35.7374 5.58177 35.459 5.4695C35.1601 5.34156 34.8381 5.27612 34.5129 5.2772C33.8749 5.26298 33.2595 5.5136 32.8129 5.9695C32.1257 6.66127 31.9201 7.69763 32.2912 8.59939C32.6623 9.50114 33.5378 10.0926 34.5129 10.1002C35.1487 10.1228 35.764 9.8739 36.2052 9.41559ZM38.2289 5.95352H40.3058V5.3843H37.6136V9.99961H40.3058V9.43039H38.2289V7.96887H40.1212V7.41503H38.2289V5.95352ZM42.8281 9.99961H42.2358V5.95352H40.9436V5.3843H44.1512V5.95352H42.8281V9.99961ZM46.4123 5.3843V9.99961H47.0046V5.3843H46.4123ZM49.6359 9.99961H49.0436V5.95352H47.7514V5.3843H50.9205V5.95352H49.6359V9.99961ZM53.9821 9.01493C54.6754 9.70535 55.7964 9.70535 56.4898 9.01493C57.1707 8.2643 57.1707 7.11944 56.4898 6.36882C55.7964 5.6784 54.6754 5.6784 53.9821 6.36882C53.3012 7.11944 53.3012 8.2643 53.9821 9.01493ZM58.4436 5.3843V9.99961H59.0436V6.23813L61.3897 9.99961H62.005V5.3843H61.4127V8.97655L59.1666 5.3843H58.4436Z" fill="white"/>
<path d="M53.5431 9.40006L53.3613 9.57182L53.3668 9.57733L53.5431 9.40006ZM53.5431 5.97704L53.3656 5.80085L53.3613 5.80536L53.5431 5.97704ZM56.9276 9.40006L57.104 9.5774L57.1089 9.57227L56.9276 9.40006ZM56.9276 5.97704L57.1089 5.80478L57.1051 5.80091L56.9276 5.97704ZM36.7821 7.87716L36.5318 7.87706L36.5324 7.88873L36.7821 7.87716ZM36.2052 9.41559L36.3853 9.58897L36.3857 9.58852L36.2052 9.41559ZM36.7513 7.53101L36.9974 7.48682L36.9604 7.28101H36.7513V7.53101ZM34.5129 7.53101V7.28101H34.2629V7.53101H34.5129ZM34.5129 8.08485H34.2629V8.33485H34.5129V8.08485ZM36.1821 8.08485L36.432 8.09301L36.4404 7.83485H36.1821V8.08485ZM35.7975 9.02329L35.9713 9.20304L35.9764 9.19808L35.9812 9.19283L35.7975 9.02329ZM33.8152 9.38425L33.7159 9.61371L33.7159 9.61371L33.8152 9.38425ZM32.7206 7.69254L32.9709 7.69606L32.9705 7.68392L32.7206 7.69254ZM33.2237 6.3879L33.4031 6.56205L33.4031 6.56205L33.2237 6.3879ZM34.5129 5.84642L34.5117 6.09642L34.5191 6.09645L34.5265 6.09605L34.5129 5.84642ZM35.7744 6.39257L35.5831 6.55344L35.7585 6.76208L35.9512 6.56934L35.7744 6.39257ZM36.1821 5.98488L36.3589 6.16166L36.5238 5.99679L36.3708 5.82084L36.1821 5.98488ZM35.459 5.4695L35.3607 5.69939L35.3655 5.70136L35.459 5.4695ZM34.5129 5.2772L34.5073 5.52722L34.5137 5.5272L34.5129 5.2772ZM32.8129 5.9695L32.9903 6.1457L32.9915 6.14443L32.8129 5.9695ZM32.2912 8.59939L32.06 8.69453L32.06 8.69453L32.2912 8.59939ZM34.5129 10.1002L34.5218 9.85026L34.5149 9.8502L34.5129 10.1002ZM40.3058 5.95352V6.20352H40.5558V5.95352H40.3058ZM38.2289 5.95352V5.70352H37.9789V5.95352H38.2289ZM40.3058 5.3843H40.5558V5.1343H40.3058V5.3843ZM37.6136 5.3843V5.1343H37.3636V5.3843H37.6136ZM37.6136 9.99961H37.3636V10.2496H37.6136V9.99961ZM40.3058 9.99961V10.2496H40.5558V9.99961H40.3058ZM40.3058 9.43039H40.5558V9.18039H40.3058V9.43039ZM38.2289 9.43039H37.9789V9.68039H38.2289V9.43039ZM38.2289 7.96887V7.71887H37.9789V7.96887H38.2289ZM40.1212 7.96887V8.21887H40.3712V7.96887H40.1212ZM40.1212 7.41503H40.3712V7.16503H40.1212V7.41503ZM38.2289 7.41503H37.9789V7.66503H38.2289V7.41503ZM42.2358 9.99961H41.9858V10.2496H42.2358V9.99961ZM42.8281 9.99961V10.2496H43.0781V9.99961H42.8281ZM42.2358 5.95352H42.4858V5.70352H42.2358V5.95352ZM40.9436 5.95352H40.6936V6.20352H40.9436V5.95352ZM40.9436 5.3843V5.1343H40.6936V5.3843H40.9436ZM44.1512 5.3843H44.4012V5.1343H44.1512V5.3843ZM44.1512 5.95352V6.20352H44.4012V5.95352H44.1512ZM42.8281 5.95352V5.70352H42.5781V5.95352H42.8281ZM46.4123 9.99961H46.1623V10.2496H46.4123V9.99961ZM46.4123 5.3843V5.1343H46.1623V5.3843H46.4123ZM47.0046 9.99961V10.2496H47.2546V9.99961H47.0046ZM47.0046 5.3843H47.2546V5.1343H47.0046V5.3843ZM49.0436 9.99961H48.7936V10.2496H49.0436V9.99961ZM49.6359 9.99961V10.2496H49.8859V9.99961H49.6359ZM49.0436 5.95352H49.2936V5.70352H49.0436V5.95352ZM47.7514 5.95352H47.5014V6.20352H47.7514V5.95352ZM47.7514 5.3843V5.1343H47.5014V5.3843H47.7514ZM50.9205 5.3843H51.1705V5.1343H50.9205V5.3843ZM50.9205 5.95352V6.20352H51.1705V5.95352H50.9205ZM49.6359 5.95352V5.70352H49.3859V5.95352H49.6359ZM56.4898 9.01493L56.6664 9.1923L56.6749 9.1829L56.4898 9.01493ZM53.9821 9.01493L53.7967 9.18311L53.8057 9.19207L53.9821 9.01493ZM56.4898 6.36882L56.6752 6.20063L56.6662 6.19167L56.4898 6.36882ZM53.9821 6.36882L53.8055 6.19145L53.7969 6.20085L53.9821 6.36882ZM58.4436 9.99961H58.1936V10.2496H58.4436V9.99961ZM58.4436 5.3843V5.1343H58.1936V5.3843H58.4436ZM59.0436 9.99961V10.2496H59.2936V9.99961H59.0436ZM59.0436 6.23813L59.2557 6.10583L58.7936 5.36492V6.23813H59.0436ZM61.3897 9.99961L61.1775 10.1319L61.251 10.2496H61.3897V9.99961ZM62.005 9.99961V10.2496H62.255V9.99961H62.005ZM62.005 5.3843H62.255V5.1343H62.005V5.3843ZM61.4127 5.3843V5.1343H61.1627V5.3843H61.4127ZM61.4127 8.97655L61.2008 9.10909L61.6627 9.84793V8.97655H61.4127ZM59.1666 5.3843L59.3786 5.25176L59.3052 5.1343H59.1666V5.3843ZM53.7248 9.22838C52.9084 8.36416 52.9084 7.01294 53.7248 6.14872L53.3613 5.80536C52.3628 6.86229 52.3628 8.51481 53.3613 9.57174L53.7248 9.22838ZM56.7513 9.22279C55.9127 10.0567 54.558 10.0567 53.7194 9.22279L53.3668 9.57733C54.4005 10.6052 56.0703 10.6052 57.1039 9.57733L56.7513 9.22279ZM56.7464 6.14925C57.566 7.01178 57.566 8.36531 56.7464 9.22785L57.1089 9.57227C58.1119 8.51674 58.1119 6.86035 57.1089 5.80483L56.7464 6.14925ZM55.2354 5.52246C55.8042 5.52246 56.3495 5.74949 56.7502 6.15317L57.1051 5.80091C56.6104 5.30267 55.9374 5.02246 55.2354 5.02246V5.52246ZM53.7205 6.15317C54.1212 5.74949 54.6665 5.52246 55.2354 5.52246V5.02246C54.5333 5.02246 53.8603 5.30267 53.3657 5.80091L53.7205 6.15317ZM36.5324 7.88873C36.5556 8.39052 36.3721 8.8799 36.0246 9.24267L36.3857 9.58852C36.8279 9.12688 37.0614 8.50413 37.0318 7.86558L36.5324 7.88873ZM36.5053 7.5752C36.5232 7.67482 36.5321 7.77584 36.5321 7.87706L37.0321 7.87726C37.0322 7.74634 37.0205 7.61567 36.9974 7.48682L36.5053 7.5752ZM34.5129 7.78101H36.7513V7.28101H34.5129V7.78101ZM34.7629 8.08485V7.53101H34.2629V8.08485H34.7629ZM36.1821 7.83485H34.5129V8.33485H36.1821V7.83485ZM35.9812 9.19283C36.2586 8.89222 36.4186 8.50184 36.432 8.09301L35.9322 8.07668C35.9228 8.36554 35.8098 8.64135 35.6138 8.85375L35.9812 9.19283ZM33.7159 9.61371C34.4817 9.94488 35.3714 9.78287 35.9713 9.20304L35.6237 8.84354C35.1691 9.283 34.4948 9.40579 33.9144 9.15479L33.7159 9.61371ZM32.4707 7.68903C32.4589 8.52321 32.9502 9.28254 33.7159 9.61371L33.9144 9.15479C33.3341 8.90379 32.9617 8.3283 32.9706 7.69606L32.4707 7.68903ZM33.0444 6.21376C32.6588 6.6109 32.4517 7.14799 32.4708 7.70117L32.9705 7.68392C32.9561 7.26668 33.1123 6.86159 33.4031 6.56205L33.0444 6.21376ZM34.5141 5.59642C33.9606 5.59371 33.4299 5.81662 33.0444 6.21376L33.4031 6.56205C33.6939 6.2625 34.0942 6.09437 34.5117 6.09642L34.5141 5.59642ZM35.9658 6.23169C35.6039 5.80128 35.0607 5.56611 34.4993 5.59679L34.5265 6.09605C34.931 6.07395 35.3224 6.24337 35.5831 6.55344L35.9658 6.23169ZM36.0053 5.8081L35.5976 6.21579L35.9512 6.56934L36.3589 6.16166L36.0053 5.8081ZM35.3655 5.70136C35.6072 5.79885 35.8224 5.95223 35.9935 6.14892L36.3708 5.82084C36.1479 5.56455 35.8675 5.3647 35.5526 5.23765L35.3655 5.70136ZM34.5137 5.5272C34.8048 5.52623 35.0931 5.58481 35.3607 5.69934L35.5574 5.23967C35.2271 5.09831 34.8714 5.026 34.5121 5.0272L34.5137 5.5272ZM32.9915 6.14443C33.3897 5.73793 33.9384 5.51446 34.5073 5.52714L34.5185 5.02726C33.8114 5.0115 33.1293 5.28927 32.6343 5.79456L32.9915 6.14443ZM32.5224 8.50424C32.1895 7.69552 32.3739 6.76609 32.9903 6.14569L32.6356 5.7933C31.8774 6.55645 31.6506 7.69973 32.06 8.69453L32.5224 8.50424ZM34.5149 9.8502C33.6404 9.84336 32.8552 9.31296 32.5224 8.50424L32.06 8.69453C32.4694 9.68933 33.4352 10.3418 34.5109 10.3502L34.5149 9.8502ZM36.0251 9.24221C35.6332 9.64933 35.0865 9.87046 34.5218 9.85035L34.504 10.35C35.2108 10.3752 35.8948 10.0985 36.3853 9.58897L36.0251 9.24221ZM40.3058 5.70352H38.2289V6.20352H40.3058V5.70352ZM40.0558 5.3843V5.95352H40.5558V5.3843H40.0558ZM37.6136 5.6343H40.3058V5.1343H37.6136V5.6343ZM37.8636 9.99961V5.3843H37.3636V9.99961H37.8636ZM40.3058 9.74961H37.6136V10.2496H40.3058V9.74961ZM40.0558 9.43039V9.99961H40.5558V9.43039H40.0558ZM38.2289 9.68039H40.3058V9.18039H38.2289V9.68039ZM37.9789 7.96887V9.43039H38.4789V7.96887H37.9789ZM40.1212 7.71887H38.2289V8.21887H40.1212V7.71887ZM39.8712 7.41503V7.96887H40.3712V7.41503H39.8712ZM38.2289 7.66503H40.1212V7.16503H38.2289V7.66503ZM37.9789 5.95352V7.41503H38.4789V5.95352H37.9789ZM42.2358 10.2496H42.8281V9.74961H42.2358V10.2496ZM41.9858 5.95352V9.99961H42.4858V5.95352H41.9858ZM40.9436 6.20352H42.2358V5.70352H40.9436V6.20352ZM40.6936 5.3843V5.95352H41.1936V5.3843H40.6936ZM44.1512 5.1343H40.9436V5.6343H44.1512V5.1343ZM44.4012 5.95352V5.3843H43.9012V5.95352H44.4012ZM42.8281 6.20352H44.1512V5.70352H42.8281V6.20352ZM43.0781 9.99961V5.95352H42.5781V9.99961H43.0781ZM46.6623 9.99961V5.3843H46.1623V9.99961H46.6623ZM47.0046 9.74961H46.4123V10.2496H47.0046V9.74961ZM46.7546 5.3843V9.99961H47.2546V5.3843H46.7546ZM46.4123 5.6343H47.0046V5.1343H46.4123V5.6343ZM49.0436 10.2496H49.6359V9.74961H49.0436V10.2496ZM48.7936 5.95352V9.99961H49.2936V5.95352H48.7936ZM47.7514 6.20352H49.0436V5.70352H47.7514V6.20352ZM47.5014 5.3843V5.95352H48.0014V5.3843H47.5014ZM50.9205 5.1343H47.7514V5.6343H50.9205V5.1343ZM51.1705 5.95352V5.3843H50.6705V5.95352H51.1705ZM49.6359 6.20352H50.9205V5.70352H49.6359V6.20352ZM49.8859 9.99961V5.95352H49.3859V9.99961H49.8859ZM56.3133 8.83778C55.7176 9.43107 54.7543 9.43107 54.1585 8.83778L53.8057 9.19207C54.5966 9.97964 55.8753 9.97964 56.6662 9.19207L56.3133 8.83778ZM56.3046 6.53679C56.8991 7.19212 56.8991 8.19163 56.3046 8.84696L56.6749 9.1829C57.4423 8.33698 57.4423 7.04677 56.6749 6.20085L56.3046 6.53679ZM54.1585 6.54597C54.7543 5.95268 55.7176 5.95268 56.3133 6.54597L56.6662 6.19167C55.8753 5.40411 54.5966 5.40411 53.8057 6.19167L54.1585 6.54597ZM54.1673 8.84696C53.5728 8.19163 53.5728 7.19212 54.1673 6.53679L53.7969 6.20085C53.0296 7.04677 53.0296 8.33698 53.7969 9.1829L54.1673 8.84696ZM58.6936 9.99961V5.3843H58.1936V9.99961H58.6936ZM59.0436 9.74961H58.4436V10.2496H59.0436V9.74961ZM58.7936 6.23813V9.99961H59.2936V6.23813H58.7936ZM61.6018 9.8673L59.2557 6.10583L58.8314 6.37044L61.1775 10.1319L61.6018 9.8673ZM62.005 9.74961H61.3897V10.2496H62.005V9.74961ZM61.755 5.3843V9.99961H62.255V5.3843H61.755ZM61.4127 5.6343H62.005V5.1343H61.4127V5.6343ZM61.6627 8.97655V5.3843H61.1627V8.97655H61.6627ZM58.9547 5.51684L61.2008 9.10909L61.6247 8.84401L59.3786 5.25176L58.9547 5.51684ZM58.4436 5.6343H59.1666V5.1343H58.4436V5.6343Z" fill="white"/>
</g>
<g id="Icon">
<path id="Shape" d="M8.33652 5.80214C8.0858 6.10298 7.95926 6.48812 7.98267 6.87904V23.8941C7.95926 24.2851 8.0858 24.6702 8.33652 24.971L8.39036 25.0249L17.921 15.502V15.2789L8.39036 5.74829L8.33652 5.80214Z" fill="url(#paint0_linear)"/>
<path id="Shape_2" d="M21.0742 18.6768L17.9204 15.4999V15.2768L21.0742 12.0923L21.1434 12.1307L24.9203 14.2769C25.9972 14.8845 25.9972 15.8845 24.9203 16.4999L21.1588 18.6383L21.0742 18.6768Z" fill="url(#paint1_linear)"/>
<path id="Shape_3" d="M21.1668 18.6306L17.9207 15.3845L8.33624 24.969C8.78909 25.3671 9.46117 25.3865 9.93622 25.0151L21.1745 18.6306" fill="url(#paint2_linear)"/>
<path id="Shape_4" d="M21.169 12.1378L9.93072 5.75328C9.45568 5.38196 8.7836 5.40135 8.33075 5.79943L17.9229 15.3839L21.169 12.1378Z" fill="url(#paint3_linear)"/>
<path id="Shape_5" opacity="0.2" d="M21.0745 18.5615L9.92852 24.9076C9.47241 25.2486 8.8462 25.2486 8.39009 24.9076L8.33624 24.9614L8.39009 25.0153C8.84535 25.3589 9.47327 25.3589 9.92852 25.0153L21.1668 18.6308L21.0745 18.5615Z" fill="black"/>
<path id="Shape_6" opacity="0.12" fill-rule="evenodd" clip-rule="evenodd" d="M21.0748 18.5607L24.9209 16.3838C25.3183 16.1876 25.6024 15.8183 25.6901 15.3838C25.6504 15.8641 25.3571 16.2866 24.9209 16.4915L21.144 18.6299L21.0748 18.5607ZM7.981 23.9337C7.9937 24.2721 8.11791 24.5985 8.33652 24.8609L8.39036 24.9224L8.33652 24.9762C8.09315 24.6842 7.96678 24.3128 7.981 23.9337ZM7.981 23.9337C7.98143 23.9222 7.98199 23.9108 7.98267 23.8993V23.7839C7.97968 23.834 7.97914 23.884 7.981 23.9337Z" fill="black"/>
<path id="Shape_7" opacity="0.25" d="M9.92867 5.86115L24.9207 14.3841C25.3182 14.5803 25.6023 14.9496 25.6899 15.3841C25.6503 14.9038 25.3569 14.4813 24.9207 14.2764L9.92867 5.75346C8.85176 5.14577 7.97485 5.65346 7.97485 6.88421V6.99959C7.99793 5.76115 8.85945 5.25346 9.92867 5.86115V5.86115Z" fill="white"/>
</g>
</g>
<defs>
<linearGradient id="paint0_linear" x1="13.7466" y1="-5.81226" x2="-1.51424" y2="-1.75361" gradientUnits="userSpaceOnUse">
<stop stop-color="#00A0FF"/>
<stop offset="0.01" stop-color="#00A1FF"/>
<stop offset="0.26" stop-color="#00BEFF"/>
<stop offset="0.51" stop-color="#00D2FF"/>
<stop offset="0.76" stop-color="#00DFFF"/>
<stop offset="1" stop-color="#00E3FF"/>
</linearGradient>
<linearGradient id="paint1_linear" x1="26.328" y1="7.53827" x2="7.72058" y2="7.53827" gradientUnits="userSpaceOnUse">
<stop stop-color="#FFE000"/>
<stop offset="0.41" stop-color="#FFBD00"/>
<stop offset="0.78" stop-color="#FFA500"/>
<stop offset="1" stop-color="#FF9C00"/>
</linearGradient>
<linearGradient id="paint2_linear" x1="8.05462" y1="10.4058" x2="-4.20397" y2="31.0259" gradientUnits="userSpaceOnUse">
<stop stop-color="#FF3A44"/>
<stop offset="1" stop-color="#C31162"/>
</linearGradient>
<linearGradient id="paint3_linear" x1="0.853968" y1="3.15025" x2="6.32563" y2="12.3581" gradientUnits="userSpaceOnUse">
<stop stop-color="#32A071"/>
<stop offset="0.07" stop-color="#2DA771"/>
<stop offset="0.48" stop-color="#15CF74"/>
<stop offset="0.8" stop-color="#06E775"/>
<stop offset="1" stop-color="#00F076"/>
</linearGradient>
</defs>
</svg>
